<svg xmlns="http://www.w3.org/2000/svg" viewBox="0 0 215 100"><defs><style>.a{fill:#1d4351;}</style></defs><title>dt-scroller-bg</title><path class="a" d="M214.72,2.19c-.81-.76-3.89-.46-5.81-.46-3.56,0-14.73.21-22.07.35h-.05L186.66,2l-.35-.14c-.61,0-1.36-.61-2.43-.7l-.19-.13-.2-.14a1.8,1.8,0,0,1-.62-.42l-.14-.12c-1.51-.66-2.26-.35-3.59,0l-.2.06a5.17,5.17,0,0,0-.89.38l-.28.11c-.67.25-1.37.43-1.83.61l-.26.11-.38.16c-8.69,0-19,.31-27.64.41-2.52,0-4.45-.11-6.46.6s-3.61.54-6,.55c-2,0-4.07,0-6.09.06a27.93,27.93,0,0,1-3.06.12c-1.68-.18-.69-.16-1.37-.74-.36-.3.25-.35-.45-.59a17.49,17.49,0,0,0-3.19,0c-2.11,0-4.24,0-6.35.08s-3.8,0-5.1.76c-1.5.86-2.55,2.22-3.83,3.2-1.13.85-1.53,1.3-2.48.21a7.1,7.1,0,0,1-1.31-2.92c-.28-1,0-1-1.76-1.28-2.44-.36-6.11-.05-8.67-.09C82,2.06,72.4,2.14,62.84,1.77c-2.42-.09-4.88-.05-7.3-.06-3.11,0-3.35,0-4.67,1.36-.47.48-1.43,1.8-2.9,1.84C46.72,5,45.28,3.36,44.08,3c-2.8-.84-7.5-.55-10.74-.66-5.54-.19-11.12,0-16.68-.16-4.52-.13-9-.35-13.5-.36-1.06,0-2.11,0-3.17,0V49.46H213c.94-3.23.52-7.48.68-10.37.27-5,.45-25,.74-27.43.25-2.08,0-4.08.14-6.16C214.57,4.72,215.43,2.87,214.72,2.19Z"/></svg>