<svg xmlns="http://www.w3.org/2000/svg" viewBox="0 0 90.29 90.29">
    <defs>
        <style>
        .cls-1{fill:#8b5b31;}.cls-2{fill:#f9dd93;}
        </style>
    </defs>
    <title>Asset 1</title>
    <g id="Layer_2" data-name="Layer 2">
        <g id="BACKGROUND_2" data-name="BACKGROUND 2">
            <path class="cls-1" d="M88.32,8.15a6.32,6.32,0,0,0-4.2-1.85,6.35,6.35,0,1,0-10.84,4.54.79.79,0,0,1,.2.47l-22,22,5.61,5.61L79.06,17a.73.73,0,0,1,.28.17,6.35,6.35,0,0,0,9-9Z"/>
            <path class="cls-1" d="M2,82.15A6.3,6.3,0,0,0,6.18,84,6.35,6.35,0,1,0,17,79.45a.78.78,0,0,1-.2-.47l22-22-5.61-5.61L11.23,73.33a.72.72,0,0,1-.28-.17,6.35,6.35,0,1,0-9,9Z"/>
            <path class="cls-1" d="M82.15,88.32A6.31,6.31,0,0,0,84,84.12a6.35,6.35,0,1,0-4.54-10.84.79.79,0,0,1-.47.2l-22-22-5.62,5.61L73.33,79.06a.7.7,0,0,1-.17.28,6.35,6.35,0,1,0,9,9Z"/>
            <path class="cls-1" d="M8.15,2A6.32,6.32,0,0,0,6.3,6.18,6.35,6.35,0,1,0,10.84,17a.79.79,0,0,1,.47-.2l22,22,5.62-5.61L17,11.23a.7.7,0,0,1,.17-.28,6.35,6.35,0,0,0-9-9Z"/>
            <path class="cls-1" d="M66.21,60.31l-22.7,6.54v.07l-17.39-5.8S33.08,67.26,31,73s4.91,9.82,6.54,3.27,4.7-2.25,4.7.82c0,3.3,1.82,4.65,3.68,4.91,1.52.21,3.14,0,3.68-3.27.61-3.68,3.48-9.82,5.11-3.27s8.59,2.45,6.54-3.27S66.21,60.31,66.21,60.31Z"/>
            <path class="cls-1" d="M76.44,39A30.27,30.27,0,0,1,46.17,69.31C31.64,69.31,15.9,55.76,15.9,39a30.27,30.27,0,1,1,60.54,0Z"/>
            <circle class="cls-2" cx="31.04" cy="44.36" r="10.23"/>
            <circle class="cls-2" cx="59.67" cy="44.36" r="10.23"/>
        </g>
    </g>
</svg>