<svg xmlns="http://www.w3.org/2000/svg" width="5.5" height="97.09" viewBox="0 0 5.5 97.09">
  <defs>
    <style>
      .cls-1 {
        fill: #323335;
        fill-rule: evenodd;
        opacity: 0.4;
      }
    </style>
  </defs>
  <path id="slice_01.svg" class="cls-1" d="M469.2,2872.44c-0.211-3.14-.356-6.27-0.668-9.42,0.048,3.97-.189,6.56-0.048,11.02-0.814-3.61-1.118-8.82-1.458-15.05-0.1-1.81-.313-3.57-0.424-5.34-0.114-1.82-.1-3.73-0.186-5.65-0.109-2.47-.342-4.86-0.469-7.22-0.775-14.68-1.713-30.58-1.945-44.61a18.3,18.3,0,0,0,.394,2.5c-0.2-4.45-.47-10.42-0.666-14.76,0.346,2.49.516,5.66,0.614,7.21a4.068,4.068,0,0,1-.1-0.94,10.8,10.8,0,0,0,.191,2.51c0.075-1.24-.113-3.66-0.143-5.35,0.183,0.53.2,2.62,0.349,3.45-0.1-3.87-.178-9.43-0.431-13.84,0.369,2.37.774,4.87,1.023,7.82,1.05,12.3,1.822,28.82,2.579,44.59,0.514,10.55,1.118,25.35,1.274,35.84C469.13,2868.36,469.285,2870.35,469.2,2872.44Z" transform="translate(-463.719 -2776.94)"/>
</svg>
