<svg xmlns="http://www.w3.org/2000/svg" viewBox="0 0 235.13 4.25"><defs><style>.cls-1{fill:#323335;opacity:0.4;isolation:isolate;}</style></defs><title>Asset 3</title><g id="Layer_2" data-name="Layer 2"><g id="Layer_1-2" data-name="Layer 1"><path id="slice_01.svg" data-name="slice 01.svg" class="cls-1" d="M231.3,1.51c-7.61.08-15.19.05-22.83.3,9.61.27,15.86.89,26.66,1C226.35,3.91,213.73,4,198.63,4c-4.38,0-8.66.21-12.94.25s-9-.16-13.68-.18c-6,0-11.78.15-17.49.16-35.56,0-74.08.21-108-.62,2-.05,4.07-.2,6.07-.44L16.81,3c6-.36,13.72-.37,17.48-.4A14,14,0,0,1,32,2.67a37.39,37.39,0,0,0,6.08-.1c-3-.23-8.86-.13-13-.23,1.29-.26,6.35-.11,8.37-.29C24.14,1.88,10.68,1.53,0,1.57c5.76-.41,11.83-.88,19-1C48.8-.16,88.81,0,127,.09c25.55.06,61.39.33,86.78,1C221.43,1.27,226.25,1.19,231.3,1.51Z"/></g></g></svg>