<svg xmlns="http://www.w3.org/2000/svg" xmlns:xlink="http://www.w3.org/1999/xlink" width="145" height="38" viewBox="0 0 145 38" preserveAspectRatio="none">
  <g fill="none" fill-rule="evenodd">
      <path fill="#162C33" fill-rule="nonzero" d="M144.721717,26.6575758 C143.80317,25.7958935 143.06637,24.8239519 142.539394,23.7787879 C142.011923,22.7060507 141.667184,21.583188 141.514141,20.4393939 C141.347374,19.211754 141.313077,17.9752188 141.411616,16.7430303 C141.505756,15.4701835 141.681739,14.201896 141.938889,12.9430303 C142.187879,11.6878788 142.495455,10.4672727 142.817677,9.30424242 C143.139899,8.14121212 143.476768,7.00121212 143.79899,6.03393939 C143.893681,5.95120608 143.972617,5.85811671 144.033333,5.75757576 C142.876263,4.24909091 144.589899,2.64848485 142.949495,1.65818182 L142.187879,1.65818182 C140.108081,1.57757576 137.793939,1.56606061 135.567677,1.46242424 C133.312148,1.35943964 131.075048,1.08173064 128.888889,0.633333333 C128.610606,0.633333333 128.317677,0.0806060606 128.024747,0.0575757576 L127.14596,0.0575757576 C125.798485,-1.75554016e-15 124.494949,0.391515152 123.176768,0.310909091 C121.389899,0.23030303 119.617677,0.391515152 117.830808,0.403030303 C116.043939,0.414545455 114.242424,0.679393939 112.411616,0.794545455 C111.078788,0.886666667 109.760606,1.04787879 108.486364,1.15151515 C107.54899,1.22060606 106.640909,1.32424242 105.732828,1.39333333 L101.734343,1.63515152 C99.7570707,1.76181818 97.7944444,1.88848485 95.8757576,1.95757576 L92.6681818,1.95757576 C91.1156566,1.95757576 89.5484848,1.95757576 87.9080808,1.86545455 L83.880303,1.73878788 C82.6792929,1.73878788 81.4489899,1.73878788 80.2333333,1.60060606 C78.1067277,1.43153525 75.9702551,1.35081694 73.8328283,1.35878788 L70.9035354,1.35878788 C68.8792799,1.26281085 66.849508,1.26281085 64.8252525,1.35878788 L61.0318182,1.35878788 L55.290404,1.5430303 L50.559596,1.62363636 L47.4252525,1.69272727 C46.2535354,1.69272727 45.1111111,1.80787879 43.9686869,1.85393939 L43.280303,1.85393939 C42.3076609,1.93702806 41.3282383,1.96012893 40.3510101,1.9230303 L37.8611111,2.02666667 L34.9318182,2.02666667 L28.5459596,1.94606061 C27.3742424,1.94606061 26.2171717,1.94606061 25.060101,2.02666667 C23.9030303,2.10727273 22.6727273,2.18787879 21.5156566,2.2569697 C20.3585859,2.32606061 19.5676768,2.39515152 18.5863636,2.40666667 C16.4333333,2.40666667 14.280303,2.47575758 12.1858586,2.60242424 C10.2348163,2.69615917 8.27831499,2.69615917 6.32727273,2.60242424 C6.07635776,2.60015135 5.82587903,2.61945803 5.58030303,2.66 L5.14090909,2.72909091 C4.37464527,2.55558987 3.55505966,2.60045065 2.82676768,2.85575758 C2.69454276,2.87677324 2.56964508,2.91997923 2.46060606,2.98242424 C2.19552877,3.3063545 2.00698522,3.6652374 1.9040404,4.04181818 C1.91637294,5.05623912 1.70833384,6.0648701 1.28888889,7.02424242 C0.941404927,7.69860605 0.638310187,8.38658729 0.380808081,9.08545455 L0.380808081,9.20060606 L2.06515152,10.0066667 L0,10.1678788 C0.00565031037,10.2330557 0.00565031037,10.2984594 0,10.3636364 L0,11.0430303 L3.06111111,12.010303 L3.06111111,12.2060606 L0.395454545,12.1024242 L0.395454545,12.4709091 C0.395454545,12.8739394 1.01060606,13.2769697 1.01060606,13.6224242 C0.980651207,14.4018854 0.828145934,15.1754383 0.556565657,15.9254545 C0.250182848,16.7510492 0.492349466,17.642435 1.2010101,18.2975758 C1.48902052,18.5098698 1.73576669,18.7543017 1.93333333,19.0230303 C2.37100485,19.8395184 2.70462341,20.6881141 2.92929293,21.5563636 C3.05932818,22.7048516 3.10334356,23.858358 3.06111111,25.0109091 L3.06111111,27.0030303 C2.97323232,28.269697 2.87558923,29.5210101 2.76818182,30.7569697 C2.76818182,30.8606061 2.6510101,30.9757576 2.57777778,31.0793939 C2.23475922,31.5023022 1.99163708,31.9704107 1.86010101,32.4612121 C1.65505051,33.5321212 1.46464646,34.6145455 1.2010101,35.6969697 C1.08383838,36.2612121 1.9040404,36.5375758 3.67626263,36.629697 L4.39393939,36.7333333 C5.36645738,36.8305279 6.35071434,36.8305279 7.32323232,36.7333333 C7.67474747,36.6757576 8.04090909,36.6527273 8.40707071,36.6066667 C10.839858,36.8032887 13.2848299,36.8917124 15.730303,36.8715152 L16.0232323,36.6181818 L16.1550505,36.6181818 C18.2153199,36.9175758 20.3195286,37.1785859 22.4676768,37.4012121 C24.2447811,37.5393939 26.0755892,37.6315152 27.960101,37.6775758 C29.5419192,37.6775758 31.1383838,37.7581818 32.7348485,37.7581818 C33.6136364,37.7581818 34.4924242,37.7581818 35.3565657,37.6775758 C36.2207071,37.5969697 36.8212121,37.5969697 37.5681818,37.5739394 C38.8277778,37.5739394 40.0873737,37.5739394 41.3469697,37.6315152 C42.6065657,37.6890909 44.0565657,37.7236364 45.4186869,37.7351515 C46.7808081,37.7466667 48.1575758,37.7351515 49.5343434,37.6660606 C52.0388889,37.5624242 54.6166667,37.5969697 57.179798,37.5969697 C59.1370728,37.6092242 61.0935009,37.5284709 63.0383838,37.3551515 C64.066593,37.2348642 65.1039834,37.1694621 66.1434343,37.1593939 C68.9848485,37.1593939 71.8262626,37.2515152 74.6676768,37.3551515 C76.7328283,37.4242424 78.7833333,37.5624242 80.8338384,37.6890909 C82.9636498,37.78228 85.0996295,37.7360602 87.219697,37.5509091 C87.9959596,37.4933333 88.7722222,37.4357576 89.5631313,37.4012121 L95.3045455,37.2284848 C96.0222222,37.2284848 96.7691919,37.1478788 97.4282828,37.0787879 L101.602525,36.710303 C101.826493,36.6918774 102.052295,36.6918774 102.276263,36.710303 C104.546465,36.9290909 106.772727,37.1939394 109.057576,37.3781818 C110.961616,37.5163636 112.894949,37.5969697 114.916162,37.6430303 L118.519192,37.6430303 C120.335354,37.5854545 122.136869,37.5048485 123.95303,37.4127273 L125.417677,37.2054545 C126.882323,37.0672727 128.215152,36.9290909 129.621212,36.8254545 L130.104545,36.8254545 C134.161616,36.8945455 138.20404,36.9866667 142.246465,37.1133333 C142.363636,36.6757576 142.436869,36.2381818 142.524747,35.8006061 C142.667469,35.7030713 142.78656,35.5860336 142.876263,35.4551515 C142.964141,35.2248485 143.05202,34.4533333 143.110606,34.2230303 C142.99032,33.9630135 142.911603,33.6922516 142.876263,33.4169697 C142.876263,32.5187879 142.964141,31.6321212 142.876263,30.7339394 C144.677778,29.8357576 142.949495,27.509697 144.721717,26.6575758 L144.721717,26.6575758 Z"/>
      <g transform="translate(2 1)">
        <path fill="#072D39" fill-rule="nonzero" d="M139.180851,5.80645161 C138.06383,4.41290323 139.702128,2.94967742 138.153191,2.03225806 L137.423404,2.03225806 C135.42766,1.95096774 133.268085,1.95096774 131.093617,1.84645161 C128.925258,1.7754676 126.77067,1.54213661 124.659574,1.14967742 C124.391489,1.14967742 124.108511,0.638709677 123.840426,0.615483871 L123.006383,0.615483871 C121.755319,0.615483871 120.504255,0.963870968 119.253191,0.894193548 C117.540426,0.824516129 115.842553,0.963870968 114.144681,0.987096774 C112.446809,1.01032258 110.659574,1.23096774 108.946809,1.34709677 C107.665957,1.4283871 106.414894,1.57935484 105.193617,1.67225806 C104.3,1.74193548 103.43617,1.83483871 102.557447,1.89290323 L98.7297872,2.11354839 C96.8382979,2.22967742 94.9617021,2.34580645 93.1148936,2.41548387 L90.0468085,2.41548387 C88.5574468,2.41548387 87.0680851,2.41548387 85.5787234,2.32258065 L81.7212766,2.20645161 C80.5571741,2.22737994 79.3926213,2.18469481 78.2361702,2.07870968 C76.201892,1.9239623 74.1588059,1.85031801 72.1148936,1.85806452 L69.2851064,1.85806452 C67.350583,1.77000789 65.4111192,1.77000789 63.4765957,1.85806452 L59.887234,1.85806452 L54.3914894,2.02064516 L49.9234043,2.09032258 L46.9446809,2.16 C45.8276596,2.16 44.7404255,2.26451613 43.6382979,2.31096774 L42.9680851,2.31096774 C42.0512952,2.36828631 41.130297,2.37216807 40.212766,2.32258065 L37.8297872,2.42709677 L34.9553191,2.42709677 L28.6702128,2.32258065 C27.5382979,2.32258065 26.4361702,2.32258065 25.3191489,2.32258065 C24.2021277,2.32258065 23.0404255,2.46193548 21.9234043,2.5316129 C20.806383,2.60129032 20.0617021,2.65935484 19.1085106,2.67096774 C17.0531915,2.67096774 14.9978723,2.74064516 12.987234,2.85677419 C11.1073377,2.94403061 9.22244954,2.94403061 7.34255319,2.85677419 C7.10491911,2.83716114 6.86529366,2.83716114 6.62765957,2.85677419 C6.07081548,2.97839129 5.49250454,3.02936515 4.91489362,3.00774194 C4.47835252,2.94285579 4.02648268,2.99611551 3.63404255,3.15870968 C3.30273769,3.50216319 3.0737819,3.89887922 2.96382979,4.32 C3.03116665,5.21261937 2.90529415,6.10770865 2.59148936,6.96774194 C2.2561436,7.58623697 1.96282914,8.21808072 1.71276596,8.86064516 L1.71276596,8.96516129 L3.3212766,9.7083871 L1.4,9.87096774 C1.40508328,9.92896462 1.40508328,9.98716441 1.4,10.0451613 L1.4,10.6606452 L4.97446809,11.7522581 L1.74255319,11.6129032 L1.74255319,11.9496774 C1.74255319,12.3212903 2.32340426,12.6929032 2.33829787,13.0412903 C2.30384225,13.7377379 2.15876375,14.4281668 1.90638298,15.0967742 C1.5652488,15.9081687 1.82262314,16.8000834 2.57659574,17.4193548 C2.85168409,17.6154088 3.0876264,17.8424354 3.27659574,18.0929032 C3.65387715,18.8433085 3.93330054,19.6214263 4.1106383,20.4154839 C4.23310884,21.473262 4.27289871,22.5358716 4.22978723,23.5974194 L4.22978723,24.3754839 C4.19412406,24.8085864 4.19412406,25.2430265 4.22978723,25.676129 C4.22978723,26.0012903 4.58723404,26.3264516 4.58723404,26.6632258 C4.62853341,27.5388767 4.36063628,28.4065557 3.81276596,29.1716129 C3.48699707,29.5573115 3.25478147,29.9863544 3.12765957,30.4374194 C2.91914894,31.4245161 2.7106383,32.4116129 2.48723404,33.4335484 C2.36808511,33.956129 3.15744681,34.2 4.85531915,34.2929032 L5.6,34.3625806 C6.54945833,34.4556055 7.51011614,34.4556055 8.45957447,34.3625806 C9.21706277,34.2399857 9.98281862,34.1508117 10.7531915,34.0954839 L14.893617,34.0954839 C15.5615566,34.1259874 16.2245632,34.203726 16.8744681,34.3277419 C18.8602837,34.6064516 20.8758865,34.8464516 22.9212766,35.0477419 C24.6191489,35.1716129 26.3716312,35.2567742 28.1787234,35.3032258 C29.6680851,35.3032258 31.1574468,35.3729032 32.7510638,35.3845161 C33.5914226,35.3982568 34.4320623,35.3711073 35.2680851,35.3032258 C35.9701212,35.2401115 36.6762933,35.2090907 37.3829787,35.2103226 L41.0021277,35.2103226 C42.2085106,35.2103226 43.593617,35.3032258 44.9042553,35.3032258 C46.2148936,35.3032258 47.5255319,35.3032258 48.8361702,35.3032258 C51.2340426,35.2103226 53.706383,35.2335484 56.1489362,35.2335484 C58.0294563,35.2461046 59.9092964,35.1724291 61.7787234,35.0129032 C62.7656533,34.9039371 63.7607125,34.8457468 64.7574468,34.8387097 C67.4829787,34.8387097 70.2085106,34.9316129 72.9191489,35.0129032 C74.8851064,35.0825806 76.8510638,35.1987097 78.8765957,35.3264516 C80.9131547,35.4117328 82.9552141,35.3690141 84.9829787,35.1987097 C85.712766,35.1987097 86.4723404,35.0941935 87.2170213,35.0593548 L92.7276596,34.8387097 C93.40567,34.8221184 94.0819307,34.7755923 94.7531915,34.6993548 L98.7446809,34.3625806 C98.9625403,34.3450243 99.1821405,34.3450243 99.4,34.3625806 C101.559574,34.5716129 103.704255,34.8154839 105.893617,34.9780645 C107.710638,35.1096774 109.557447,35.1909677 111.434043,35.2219355 L114.889362,35.2219355 C116.617021,35.2219355 118.359574,35.0941935 120.102128,35.0129032 L121.591489,34.8270968 C122.931915,34.6993548 124.257447,34.5716129 125.612766,34.4787097 C127.534043,34.3393548 129.485106,34.2348387 131.406383,34.0954839 C132.786441,34.1085799 134.146951,33.8403722 135.353191,33.3174194 C135.547181,33.257251 135.755226,33.2295552 135.96383,33.236129 C136.085673,33.2447179 136.198163,33.290662 136.276596,33.363871 C136.350672,33.507155 136.410425,33.6546918 136.455319,33.8051613 C136.882713,33.9094804 137.347624,33.8583037 137.721277,33.6658065 C137.963137,33.5476824 138.162908,33.3839282 138.302128,33.1896774 C138.391489,32.9806452 138.465957,32.2722581 138.525532,32.0283871 C138.203155,31.1141815 138.102139,30.1611326 138.22766,29.2180645 L135.531915,29.2180645 C136.410638,29.2180645 137.289362,28.0567742 138.182979,28.8696774 C139.925532,28.0451613 138.182979,25.8387097 139.895745,25.0258065 C139.021218,24.2371986 138.316991,23.342946 137.810638,22.3780645 C137.306583,21.3955155 136.975905,20.3641654 136.82766,19.3122581 C136.666491,18.1864509 136.631607,17.0518259 136.723404,15.9212903 C136.814502,14.753932 136.983526,13.5910661 137.229787,12.4374194 C137.468085,11.276129 137.765957,10.1148387 138.078723,9.09290323 C138.391489,8.07096774 138.719149,7.01419355 139.017021,6.08516129 C139.089497,5.99929732 139.144743,5.90531222 139.180851,5.80645161 Z"/>
        <path fill="#2B898C" fill-rule="nonzero" d="M130.140426,26.8141935 C129.941193,26.8520098 129.730783,26.8131532 129.574468,26.7096774 C129.380851,26.523871 129.768085,26.3032258 130.080851,26.2335484 C132.125431,25.7327695 134.23217,25.4018992 136.365957,25.2464516 L137.36383,25.1767742 C137.626527,23.7039711 137.437675,22.2035891 136.812766,20.7987097 C134.891489,14.9922581 136.008511,8.9883871 137.110638,3.11225806 C131.153191,3.00774194 125.195745,2.8916129 119.238298,2.84516129 C117.123404,3.28645161 114.680851,3.48387097 113.057447,4.50580645 C112.74039,4.74117066 112.378696,4.9370189 111.985106,5.08645161 C111.500768,5.19251603 110.992873,5.21627711 110.495745,5.15612903 L107.978723,4.97032258 C101.038298,10.4516129 92.0723404,14.7483871 83.2702128,18.9058065 C81.8602669,19.665198 80.2860904,20.2198985 78.6234043,20.5432258 C76.6851568,20.7310803 74.7187316,20.6285997 72.8297872,20.2412903 C54.3021277,17.3845161 35.8489362,14.3109677 17.4702128,11.0206452 C13.0021277,10.2193548 8.53404255,9.41806452 4.06595745,8.81419355 C4.06595745,9.36 4.17021277,9.89419355 4.2,10.44 C5.73900709,10.4477419 7.3177305,10.4516129 8.93617021,10.4516129 C8.7039839,11.3344934 8.04203415,12.1128625 7.0893617,12.6232258 C6.29342266,12.9589673 5.53601808,13.3474976 4.82553191,13.7845161 C4.63191489,13.9354839 4.48297872,14.0980645 4.30425532,14.2490323 C4.53484654,19.8954838 4.37575147,25.5475194 3.82765957,31.1806452 C3.63638479,31.8987173 3.8717882,32.6457213 4.46808511,33.2129032 C5.05338985,33.5577265 5.74888212,33.7706262 6.4787234,33.8283871 C9.80445947,34.2645584 13.1749629,34.4589416 16.5468085,34.4090323 C17.5595745,33.5612903 18.5723404,32.7251613 19.6,31.8890323 C19.7319794,31.7635736 19.9079255,31.6707691 20.106383,31.6219355 C20.5234043,31.5406452 20.8957447,31.8077419 21.1191489,32.0632258 C21.8191489,32.8296774 22.4297872,33.8051613 23.7255319,33.9793548 C24.0617485,33.9639709 24.3892887,34.0661272 24.6191489,34.2580645 C33.0340426,34.083871 41.4638298,34.083871 49.9382979,34.0954839 L86.6361702,34.0954839 C86.3073235,33.6780274 85.922928,33.2887777 85.4893617,32.9341935 C84.9234043,32.4464516 84.2085106,31.9354839 84.2829787,31.3083871 L87.6191489,32.4696774 C88.2441425,32.7118691 88.8913067,32.9175944 89.5553191,33.0851613 C90.0319149,33.1896774 90.5234043,33.2709677 91.0446809,33.3987097 C91.5913028,33.56897 92.0953928,33.8126615 92.5340426,34.1187097 L94.9021277,34.1187097 C109.155319,34.1187097 123.423404,34.1187097 137.676596,34.5948387 C138.322342,32.1865515 138.493101,29.7155434 138.182979,27.2670968 L135.904255,26.8722581 C134.042553,26.8141935 132.061702,26.7909677 130.140426,26.8141935 Z"/>
        <path fill="#2C4851" fill-rule="nonzero" d="M7.10425532,12.5883871 C8.04184979,12.0842135 8.69712506,11.3198901 8.93617021,10.4516129 L4.08085106,10.4516129 C4.17021277,11.7058065 4.76595745,12.4954839 4.82553191,13.7496774 C5.54076331,13.3120973 6.30317683,12.9235536 7.10425532,12.5883871 Z M23.7255319,33.9793548 C22.4297872,33.8051613 21.8191489,32.8180645 21.1191489,32.0632258 C20.9188329,31.7762426 20.5248284,31.6045639 20.106383,31.6219355 C19.9079255,31.6707691 19.7319794,31.7635736 19.6,31.8890323 C18.5723404,32.7251613 18.1106383,33.0503226 17.0829787,33.956129 C19.406383,33.956129 21.2085106,34.3393548 23.5319149,34.2812903 L24.6191489,34.2812903 C24.5,34.083871 24.0531915,34.0258065 23.7255319,33.9793548 Z M89.5553191,33.1083871 C88.8913067,32.9408202 88.2441425,32.735095 87.6191489,32.4929032 L84.2829787,31.3316129 C84.4167801,31.970291 84.8459328,32.5486473 85.4893617,32.9574194 C85.8146887,33.1848881 86.0912348,33.4514846 86.3085106,33.7470968 C88.2595745,33.7470968 90.5234043,34.1883871 92.4744681,34.1883871 C92.0358183,33.8823389 91.5317283,33.6386474 90.9851064,33.4683871 C90.5207713,33.3205826 90.0428251,33.2002425 89.5553191,33.1083871 L89.5553191,33.1083871 Z M137.423404,25.1651613 L136.425532,25.2348387 C134.291744,25.3902863 132.185006,25.7211566 130.140426,26.2219355 C129.82766,26.3032258 129.440426,26.5122581 129.634043,26.6980645 C129.77601,26.7875965 129.960241,26.8256211 130.140426,26.8025806 C132.061702,26.8025806 133.968085,26.8025806 135.889362,26.8722581 C136.660312,26.4758735 137.208808,25.8655025 137.423404,25.1651613 L137.423404,25.1651613 Z M110.451064,2.81032258 C109.631915,3.55354839 108.782979,4.26193548 107.889362,4.97032258 L110.406383,5.15612903 C110.903511,5.21627711 111.411407,5.19251603 111.895745,5.08645161 C112.289334,4.9370189 112.651029,4.74117066 112.968085,4.50580645 C114.680851,3.48387097 117.123404,3.28645161 119.297872,2.84516129 C116.348936,2.81419355 113.4,2.80258065 110.451064,2.81032258 Z"/>
        <path fill="#349DA1" fill-rule="nonzero" d="M72.7404255,20.2529032 C74.6293699,20.6402126 76.5957951,20.7426932 78.5340426,20.5548387 C80.1967286,20.2315114 81.7709052,19.6768109 83.1808511,18.9174194 C91.9829787,14.7367742 100.948936,10.44 107.889362,4.98193548 L105.446809,4.79612903 C101.678723,4.51741935 97.9106383,4.23870968 94.1574468,3.85548387 C92.5638298,3.68129032 90.9553191,3.48387097 89.3617021,3.29806452 C86.5547502,3.50008959 83.7341177,3.56215135 80.9170213,3.48387097 C77.9382979,3.33290323 75.0638298,2.85677419 72.1148936,2.71741935 C68.3200916,2.66382041 64.524711,2.79569172 60.7510638,3.11225806 L58.2489362,3.21677419 C57.6978723,3.76258065 58.0255319,4.59870968 57.3702128,5.09806452 C56.6662504,5.48977078 55.7209837,5.48977078 55.0170213,5.09806452 C54.3697159,4.73101839 53.8563693,4.23868819 53.5276596,3.66967742 L53.2446809,3.26322581 C50.4744681,3.26322581 47.7042553,3.26322581 44.9340426,3.14709677 L44.6808511,3.28645161 L41.5680851,4.80774194 C41.8041593,4.18052454 42.1715177,3.58802952 42.6553191,3.05419355 C35.1412041,2.73326003 27.6062906,2.87693519 20.1212766,3.48387097 C16.2191489,3.87870968 12.1531915,4.50580645 8.44468085,3.6 C6.79148936,3.17032258 4.64680851,2.55483871 3.52978723,3.48387097 L3.42553191,3.82064516 C3.63404255,5.49290323 3.79787234,7.16516129 3.94680851,8.82580645 C8.41489362,9.42967742 12.8829787,10.2309677 17.3510638,11.0322581 C35.7496454,14.3225806 54.212766,17.396129 72.7404255,20.2529032 Z"/>
        <path fill="#25797F" fill-rule="nonzero" d="M53.6170213,3.63483871 C53.943942,4.20470905 54.4576333,4.69736976 55.106383,5.06322581 C55.8103454,5.45493207 56.7556121,5.45493207 57.4595745,5.06322581 C57.9659574,4.68 57.8765957,3.62322581 58.0702128,3.62322581 L53.6170213,3.63483871 Z M42.7595745,3.06580645 C42.275773,3.59964243 41.9084146,4.19213745 41.6723404,4.81935484 L44.1893617,3.48387097 C43.6598136,3.41608238 43.150258,3.27446605 42.6851064,3.06580645 L42.7595745,3.06580645 Z"/>
        <path fill="#2C4851" fill-rule="nonzero" d="M90.0021277,3.26322581 L89.3617021,3.26322581 C90.9553191,3.46064516 92.5638298,3.64645161 94.1723404,3.80903226 C97.9255319,4.19225806 101.619149,4.47096774 105.461702,4.74967742 L107.904255,4.93548387 C108.723404,4.23870968 109.646809,3.48387097 110.465957,2.77548387 C103.629787,2.82193548 96.8085106,2.94967742 90.0021277,3.26322581 Z"/>
      </g>
  </g>
</svg>
